<?xml version="1.0" encoding="UTF-8" standalone="no"?>
<!-- Created with Inkscape (http://www.inkscape.org/) -->

<svg
   width="1024"
   height="1024"
   viewBox="0 0 270.93333 270.93333"
   version="1.1"
   id="svg5"
   inkscape:version="1.2.2 (b0a8486, 2022-12-01)"
   sodipodi:docname="PulsarLogoWhiteOnBlueFlat1024px.svg"
   inkscape:export-filename="../1024MasterFlatTransaprentBlueSecondary.svg"
   inkscape:export-xdpi="96"
   inkscape:export-ydpi="96"
   xmlns:inkscape="http://www.inkscape.org/namespaces/inkscape"
   xmlns:sodipodi="http://sodipodi.sourceforge.net/DTD/sodipodi-0.dtd"
   xmlns="http://www.w3.org/2000/svg"
   xmlns:svg="http://www.w3.org/2000/svg">
  <sodipodi:namedview
     id="namedview7"
     pagecolor="#0098ce"
     bordercolor="#000000"
     borderopacity="0.25"
     inkscape:showpageshadow="false"
     inkscape:pageopacity="1"
     inkscape:pagecheckerboard="false"
     inkscape:deskcolor="#d1d1d1"
     inkscape:document-units="px"
     showgrid="false"
     showborder="false"
     inkscape:zoom="0.33635944"
     inkscape:cx="435.54598"
     inkscape:cy="462.30307"
     inkscape:window-width="1277"
     inkscape:window-height="701"
     inkscape:window-x="0"
     inkscape:window-y="23"
     inkscape:window-maximized="0"
     inkscape:current-layer="layer1">
    <inkscape:grid
       type="xygrid"
       id="grid182" />
  </sodipodi:namedview>
  <defs
     id="defs2">
    <filter
       style="color-interpolation-filters:sRGB;"
       inkscape:label="Drop Shadow"
       id="filter681"
       x="-0.11710831"
       y="-0.053149576"
       width="1.1809856"
       height="1.1505905">
      <feFlood
         flood-opacity="0.498039"
         flood-color="rgb(0,0,0)"
         result="flood"
         id="feFlood671" />
      <feComposite
         in="flood"
         in2="SourceGraphic"
         operator="in"
         result="composite1"
         id="feComposite673" />
      <feGaussianBlur
         in="composite1"
         stdDeviation="3"
         result="blur"
         id="feGaussianBlur675" />
      <feOffset
         dx="-6"
         dy="6"
         result="offset"
         id="feOffset677" />
      <feComposite
         in="SourceGraphic"
         in2="offset"
         operator="over"
         result="composite2"
         id="feComposite679" />
    </filter>
  </defs>
  <g
     inkscape:label="Layer 1"
     inkscape:groupmode="layer"
     id="layer1">
    <path
       id="path561"
       style="fill:#ffffff;fill-opacity:1;fill-rule:evenodd;stroke-width:1.53156"
       d="m 94.289875,27.989012 a 12.182216,11.839606 0 0 0 -12.1815,11.839566 12.182216,11.839606 0 0 0 12.1815,11.839758 A 12.182216,11.839606 0 0 0 106.47286,39.828578 12.182216,11.839606 0 0 0 94.289875,27.989012 Z m 44.823715,0 a 22.840366,23.472521 0 0 0 -22.83896,23.4728 22.840366,23.472521 0 0 0 0.0127,0.20582 h 22.82811 12.18022 1.02277 c 12.83759,0 18.65269,8.226449 18.65269,18.059198 0,9.431398 -5.41531,18.663808 -18.85498,18.663808 h -48.74675 c -14.843375,0 -21.259345,6.220433 -21.259345,21.471242 v 12.54486 1.53144 15.81167 h -0.001 v 23.7052 h 23.690665 v -11.86557 -11.83963 -17.34311 c 0,-0.23331 5.9e-4,-0.46214 -0.0383,-0.69161 v -7.23858 c 0,-2.40803 1.2043,-3.41075 3.4108,-3.41075 h 42.12465 c 31.69364,0 43.52788,-22.073432 43.52788,-42.541681 0,-21.672058 -13.03789,-40.535812 -43.52788,-40.535812 z" />
    <g
       id="g1149"
       transform="matrix(0.75338641,0,0,0.75338645,247.82666,79.519832)"
       style="fill:#ffffff;fill-opacity:1">
      <g
         id="g12604"
         style="fill:#ffffff;fill-opacity:1;stroke:#000000;stroke-width:0;stroke-dasharray:none;stroke-opacity:1"
         transform="matrix(1.3768055,0,0,1.3768055,-2016.2342,1206.9112)">
        <g
           id="g12602"
           transform="matrix(0.66624247,0,0,0.6656971,664.60931,-233.78756)"
           style="fill:#ffffff;fill-opacity:1;stroke:#000000;stroke-width:0;stroke-dasharray:none;stroke-opacity:1">
          <path
             id="path12600"
             style="fill:#ffffff;fill-opacity:1;fill-rule:evenodd;stroke:#000000;stroke-width:0;stroke-dasharray:none;stroke-opacity:1"
             d="m 1113.5595,-797.16612 c -5.3983,0 -8.8956,1.82588 -10.7963,6.61973 l -18.0192,45.65617 h 9.8836 l 16.2712,-41.31836 c 0.5322,-1.21749 1.3683,-1.75013 2.5849,-1.75013 1.2165,0 2.0528,0.53264 2.509,1.75013 l 15.5859,41.31836 h 9.9601 l -17.3347,-45.65617 c -1.8247,-4.79385 -5.3225,-6.61973 -10.6445,-6.61973 z m -227.50703,0.90642 a 4.6213499,4.4896697 0 0 0 -4.6212,4.48952 4.6213499,4.4896697 0 0 0 4.6212,4.48954 4.6213499,4.4896697 0 0 0 4.62197,-4.48954 4.6213499,4.4896697 0 0 0 -4.62197,-4.48952 z m 17.00447,0 a 8.6645422,8.9009618 0 0 0 -8.66467,8.90087 8.6645422,8.9009618 0 0 0 0.005,0.0782 h 8.66 4.62045 0.38825 c 4.86993,0 7.07525,3.11946 7.07525,6.84808 0,3.57647 -2.05423,7.07797 -7.1526,7.07797 h -18.49176 c -5.63084,0 -8.06525,2.35832 -8.06525,8.14152 v 4.75734 0.58055 5.99584 8.98912 h 8.98716 v -4.49883 -4.49029 -6.57639 c 0,-0.0884 -2.1e-4,-0.17538 -0.0155,-0.26239 v -2.74482 c 0,-0.91313 0.4569,-1.29344 1.29393,-1.29344 h 15.98048 c 12.02299,0 16.51257,-8.37041 16.51257,-16.13211 0,-8.21821 -4.94613,-15.37121 -16.51257,-15.37121 z m 29.70175,0.006 v 35.00284 c 0,10.80517 5.62684,16.36045 16.57522,16.36045 h 10.79621 c 10.94839,0 16.65025,-5.55528 16.65025,-16.36045 v -35.00284 h -8.81934 v 34.31857 c 0,5.09821 -2.66128,8.06566 -8.43961,8.06566 h -9.12328 c -5.93037,0 -8.51537,-2.96745 -8.51537,-8.06566 v -34.31857 z m 55.50235,0 v 33.63353 c 0,10.27251 5.3224,17.72976 18.93186,17.72976 h 20.4524 v -8.97906 h -19.9203 c -8.05919,0 -10.49225,-3.88053 -10.49225,-8.82656 v -33.55767 z m 61.43296,0 c -11.4046,0 -15.9665,6.23964 -15.9665,14.76203 0,7.15272 3.1929,14.83867 16.8784,14.83867 h 11.937 c 6.3105,0 8.0591,3.0433 8.0591,6.39138 0,3.72854 -2.2048,6.39215 -7.0707,6.39215 h -28.8911 v 8.97906 h 28.5872 c 11.7087,0 16.3462,-6.39244 16.3462,-15.06701 0,-7.38099 -3.2692,-15.14209 -17.2588,-15.14209 h -12.0129 c -6.0064,0 -7.6028,-2.96738 -7.6028,-6.08719 0,-3.57634 2.0531,-6.08793 6.6909,-6.08793 h 26.3065 v -8.97907 z m 99.2959,0 v 8.97907 h 28.1309 c 4.942,0 7.1471,3.11976 7.1471,6.7722 0,3.65246 -2.053,7.15306 -7.1471,7.15306 h -19.9961 c -5.6262,0 -8.059,2.35847 -8.059,8.14153 v 20.31743 h 8.9717 v -18.56729 c 0,-0.91311 0.456,-1.29346 1.2923,-1.29346 h 13.3819 l 11.7087,19.86075 h 9.9594 l -11.9362,-20.54501 c 7.8312,-2.20668 10.8721,-9.05526 10.8721,-15.44706 0,-8.21803 -4.9421,-15.37122 -16.4988,-15.37122 z" />
        </g>
      </g>
      <g
         aria-label="Fast &amp; Secure Savings Coin"
         id="text12608"
         style="font-size:21.189px;font-family:Nasalization;-inkscape-font-specification:Nasalization;fill:#ffffff;fill-opacity:1;stroke:#000000;stroke-width:0">
        <path
           d="m -283.14897,208.51666 h -7.79068 v 4.3454 h 6.69399 v 1.82093 h -6.69399 v 7.41822 h -2.04855 v -15.40548 h 9.83923 z"
           id="path1078"
           style="fill:#ffffff;fill-opacity:1" />
        <path
           d="m -273.02005,222.10121 h -1.93473 v -1.2312 q -0.25866,0.17589 -0.70355,0.49662 -0.43454,0.31039 -0.84838,0.49662 -0.48627,0.23796 -1.11739,0.39315 -0.63112,0.16554 -1.47951,0.16554 -1.56227,0 -2.64862,-1.03462 -1.08635,-1.03461 -1.08635,-2.63827 0,-1.31397 0.55869,-2.12097 0.56904,-0.81735 1.61401,-1.28293 1.05531,-0.46558 2.53481,-0.63112 1.47951,-0.16554 3.17629,-0.24831 v -0.30004 q 0,-0.66215 -0.23797,-1.09669 -0.22761,-0.43454 -0.66215,-0.68285 -0.41385,-0.23796 -0.99324,-0.32073 -0.57938,-0.0828 -1.2105,-0.0828 -0.76562,0 -1.70712,0.20692 -0.94151,0.19658 -1.94509,0.57939 h -0.10346 v -1.97613 q 0.56904,-0.15519 1.64505,-0.34142 1.076,-0.18623 2.12096,-0.18623 1.22085,0 2.12097,0.20692 0.91047,0.19658 1.57262,0.68285 0.65181,0.47593 0.99324,1.2312 0.34142,0.75527 0.34142,1.87266 z m -1.93473,-2.8452 v -3.21767 q -0.88978,0.0517 -2.10028,0.1552 -1.20016,0.10346 -1.9037,0.30004 -0.83804,0.23796 -1.35535,0.74492 -0.51731,0.49662 -0.51731,1.37605 0,0.99323 0.60008,1.50019 0.60008,0.49662 1.83127,0.49662 1.02428,0 1.87266,-0.39316 0.84839,-0.4035 1.57263,-0.96219 z"
           id="path1080"
           style="fill:#ffffff;fill-opacity:1" />
        <path
           d="m -261.01846,218.76974 q 0,1.58297 -1.31397,2.59689 -1.30362,1.01393 -3.56944,1.01393 -1.28292,0 -2.35893,-0.30004 -1.06566,-0.31039 -1.78989,-0.6725 v -2.18305 h 0.10346 q 0.92081,0.6932 2.04855,1.10704 1.12773,0.4035 2.16235,0.4035 1.28293,0 2.00716,-0.41384 0.72424,-0.41385 0.72424,-1.30362 0,-0.68285 -0.39316,-1.03462 -0.39315,-0.35177 -1.51054,-0.60008 -0.41385,-0.0931 -1.08635,-0.21727 -0.66216,-0.12416 -1.21051,-0.269 -1.52089,-0.4035 -2.16235,-1.17947 -0.63112,-0.78631 -0.63112,-1.92439 0,-0.71389 0.2897,-1.345 0.30003,-0.63112 0.90011,-1.12774 0.57939,-0.48627 1.46916,-0.76562 0.90012,-0.28969 2.00716,-0.28969 1.03462,0 2.08993,0.25865 1.06566,0.24831 1.7692,0.61043 v 2.07958 h -0.10346 q -0.74492,-0.54834 -1.81058,-0.92081 -1.06566,-0.38281 -2.08993,-0.38281 -1.06566,0 -1.80024,0.41385 -0.73458,0.4035 -0.73458,1.21051 0,0.71388 0.44489,1.076 0.43454,0.36212 1.40708,0.58973 0.538,0.12416 1.20016,0.24831 0.6725,0.12416 1.11739,0.22762 1.35535,0.31038 2.08993,1.06565 0.73458,0.76562 0.73458,2.02786 z"
           id="path1082"
           style="fill:#ffffff;fill-opacity:1" />
        <path
           d="m -252.23455,221.99775 q -0.54835,0.14485 -1.20016,0.23796 -0.64146,0.0931 -1.14842,0.0931 -1.7692,0 -2.69001,-0.95185 -0.92081,-0.95185 -0.92081,-3.05213 v -6.14564 h -1.31397 v -1.63469 h 1.31397 v -3.32113 h 1.94508 v 3.32113 h 4.01432 v 1.63469 h -4.01432 v 5.26622 q 0,0.91046 0.0414,1.42777 0.0414,0.50696 0.28969,0.95185 0.22761,0.41385 0.62077,0.61042 0.4035,0.18624 1.22085,0.18624 0.47593,0 0.99323,-0.1345 0.51731,-0.14485 0.74493,-0.23797 h 0.10346 z"
           id="path1084"
           style="fill:#ffffff;fill-opacity:1" />
        <path
           d="m -236.15657,209.7789 q 0,-0.98289 -0.58973,-1.54158 -0.57939,-0.56904 -1.48985,-0.56904 -0.95185,0 -1.55193,0.64146 -0.60008,0.63112 -0.60008,1.55193 0,0.77596 0.4035,1.37604 0.41385,0.60008 1.7692,1.41743 1.01392,-0.36212 1.53123,-1.05531 0.52766,-0.70354 0.52766,-1.82093 z m 2.00716,9.06326 -4.94548,-4.82132 q -0.32073,0.15519 -0.64146,0.41384 -0.32073,0.24831 -0.64147,0.68285 -0.28969,0.4035 -0.47592,0.97254 -0.18623,0.56905 -0.18623,1.28293 0,1.51055 0.87942,2.4417 0.88978,0.92081 2.51413,0.92081 0.96219,0 1.9037,-0.46557 0.95185,-0.47593 1.59331,-1.42778 z m 3.1142,-6.14564 v 0.99324 q 0,0.99323 -0.25865,2.23478 -0.25866,1.24154 -0.87943,2.36927 l 3.91086,3.8074 h -2.54516 l -2.36928,-2.31755 q -1.18981,1.46916 -2.43135,2.0589 -1.24155,0.57938 -2.55551,0.57938 -2.15201,0 -3.57978,-1.25189 -1.41743,-1.26223 -1.41743,-3.30043 0,-0.95185 0.269,-1.64504 0.269,-0.6932 0.63112,-1.20016 0.36211,-0.48627 0.90012,-0.91047 0.538,-0.43454 1.08635,-0.75527 -1.13809,-0.74493 -1.64505,-1.5002 -0.49662,-0.75527 -0.49662,-1.9037 0,-0.69319 0.269,-1.31396 0.27935,-0.63112 0.8277,-1.14843 0.51731,-0.49662 1.34501,-0.807 0.83804,-0.31039 1.84162,-0.31039 1.78989,0 2.89693,0.91047 1.10704,0.90011 1.10704,2.2865 0,0.45524 -0.12415,1.03462 -0.12416,0.56904 -0.4242,1.02428 -0.33107,0.50696 -0.9415,0.97254 -0.61042,0.46558 -1.58297,0.79665 l 3.83844,3.74533 q 0.14485,-0.41385 0.21727,-0.91047 0.0724,-0.49662 0.0828,-1.03462 0.0207,-0.57938 0.0104,-1.29327 0,-0.71389 0,-1.21051 z"
           id="path1086"
           style="fill:#ffffff;fill-opacity:1" />
        <path
           d="m -208.24255,217.70408 q 0,0.90012 -0.42419,1.77955 -0.41385,0.87942 -1.16912,1.48985 -0.82769,0.66215 -1.93474,1.03462 -1.09669,0.37246 -2.64862,0.37246 -1.66574,0 -3.0004,-0.31039 -1.32431,-0.31038 -2.70035,-0.92081 v -2.56585 h 0.14484 q 1.16912,0.97254 2.70036,1.50019 1.53124,0.52766 2.87624,0.52766 1.9037,0 2.95901,-0.71389 1.06566,-0.71388 1.06566,-1.9037 0,-1.02427 -0.50696,-1.51054 -0.49662,-0.48627 -1.52089,-0.75527 -0.77597,-0.20693 -1.68643,-0.34143 -0.90012,-0.1345 -1.91405,-0.34142 -2.04855,-0.43454 -3.04178,-1.47951 -0.98289,-1.05531 -0.98289,-2.74174 0,-1.93473 1.6347,-3.16593 1.6347,-1.24154 4.14882,-1.24154 1.62436,0 2.97971,0.31038 1.35535,0.31039 2.40031,0.76562 v 2.42101 h -0.14484 q -0.87943,-0.74493 -2.31755,-1.2312 -1.42778,-0.49662 -2.92797,-0.49662 -1.64505,0 -2.64863,0.68285 -0.99323,0.68285 -0.99323,1.75886 0,0.96219 0.49661,1.51054 0.49662,0.54835 1.74851,0.83804 0.66216,0.14485 1.88301,0.35177 1.22085,0.20693 2.06924,0.4242 1.71746,0.45523 2.58654,1.37604 0.86908,0.92081 0.86908,2.5762 z"
           id="path1088"
           style="fill:#ffffff;fill-opacity:1" />
        <path
           d="m -195.43396,216.52461 h -8.51492 q 0,1.06566 0.32073,1.86232 0.32073,0.78631 0.87943,1.29327 0.538,0.49662 1.27258,0.74493 0.74493,0.24831 1.6347,0.24831 1.17946,0 2.36928,-0.46558 1.20015,-0.47593 1.70712,-0.93116 h 0.10346 v 2.12097 q -0.98289,0.41385 -2.00716,0.6932 -1.02427,0.27934 -2.15201,0.27934 -2.87624,0 -4.49025,-1.55193 -1.614,-1.56227 -1.614,-4.42817 0,-2.83485 1.54158,-4.50059 1.55193,-1.66574 4.0764,-1.66574 2.33824,0 3.60047,1.3657 1.27259,1.3657 1.27259,3.87982 z m -1.89336,-1.48985 q -0.0103,-1.53123 -0.77596,-2.36927 -0.75527,-0.83805 -2.3072,-0.83805 -1.56228,0 -2.49343,0.92081 -0.92081,0.92082 -1.04497,2.28651 z"
           id="path1090"
           style="fill:#ffffff;fill-opacity:1" />
        <path
           d="m -183.93935,221.37698 q -0.97254,0.46558 -1.85196,0.72423 -0.86908,0.25866 -1.85197,0.25866 -1.25189,0 -2.29686,-0.36212 -1.04496,-0.37246 -1.78989,-1.11739 -0.75527,-0.74492 -1.16912,-1.88301 -0.41385,-1.13808 -0.41385,-2.65897 0,-2.83485 1.55193,-4.44886 1.56228,-1.614 4.11779,-1.614 0.99323,0 1.94508,0.27934 0.9622,0.27935 1.75885,0.68285 v 2.16235 h -0.10346 q -0.88977,-0.69319 -1.84162,-1.06565 -0.9415,-0.37247 -1.84162,-0.37247 -1.65539,0 -2.61759,1.11739 -0.95185,1.10705 -0.95185,3.25905 0,2.08993 0.93116,3.21767 0.9415,1.11739 2.63828,1.11739 0.58973,0 1.20016,-0.1552 0.61042,-0.15519 1.09669,-0.4035 0.4242,-0.21727 0.79666,-0.45523 0.37246,-0.24831 0.58973,-0.42419 h 0.10346 z"
           id="path1092"
           style="fill:#ffffff;fill-opacity:1" />
        <path
           d="m -171.86534,222.10121 h -1.94508 v -1.28293 q -0.98289,0.77597 -1.88301,1.18982 -0.90012,0.41384 -1.98647,0.41384 -1.82093,0 -2.83485,-1.10704 -1.01393,-1.11739 -1.01393,-3.2694 v -7.50098 h 1.94508 v 6.58017 q 0,0.87943 0.0828,1.51055 0.0828,0.62077 0.35177,1.06566 0.27935,0.45523 0.72424,0.66215 0.44488,0.20693 1.29327,0.20693 0.75527,0 1.64505,-0.39316 0.90012,-0.39316 1.67608,-1.00358 v -8.62872 h 1.94508 z"
           id="path1094"
           style="fill:#ffffff;fill-opacity:1" />
        <path
           d="m -160.82595,212.66549 h -0.10347 q -0.43454,-0.10347 -0.84838,-0.14485 -0.4035,-0.0517 -0.9622,-0.0517 -0.90012,0 -1.73816,0.4035 -0.83804,0.39315 -1.614,1.02427 v 8.20453 h -1.94509 v -11.55669 h 1.94509 v 1.70712 q 1.15877,-0.93116 2.03819,-1.31397 0.88978,-0.39315 1.81059,-0.39315 0.50696,0 0.73458,0.031 0.22761,0.0207 0.68285,0.0931 z"
           id="path1096"
           style="fill:#ffffff;fill-opacity:1" />
        <path
           d="m -149.32099,216.52461 h -8.51491 q 0,1.06566 0.32073,1.86232 0.32073,0.78631 0.87942,1.29327 0.53801,0.49662 1.27259,0.74493 0.74492,0.24831 1.63469,0.24831 1.17947,0 2.36928,-0.46558 1.20016,-0.47593 1.70712,-0.93116 h 0.10347 v 2.12097 q -0.98289,0.41385 -2.00717,0.6932 -1.02427,0.27934 -2.152,0.27934 -2.87624,0 -4.49025,-1.55193 -1.61401,-1.56227 -1.61401,-4.42817 0,-2.83485 1.54159,-4.50059 1.55193,-1.66574 4.0764,-1.66574 2.33824,0 3.60047,1.3657 1.27258,1.3657 1.27258,3.87982 z m -1.89335,-1.48985 q -0.0104,-1.53123 -0.77597,-2.36927 -0.75527,-0.83805 -2.3072,-0.83805 -1.56227,0 -2.49343,0.92081 -0.92081,0.92082 -1.04496,2.28651 z"
           id="path1098"
           style="fill:#ffffff;fill-opacity:1" />
        <path
           d="m -127.5733,217.70408 q 0,0.90012 -0.42419,1.77955 -0.41385,0.87942 -1.16912,1.48985 -0.82769,0.66215 -1.93474,1.03462 -1.09669,0.37246 -2.64862,0.37246 -1.66574,0 -3.0004,-0.31039 -1.32431,-0.31038 -2.70035,-0.92081 v -2.56585 h 0.14484 q 1.16912,0.97254 2.70036,1.50019 1.53124,0.52766 2.87624,0.52766 1.9037,0 2.95901,-0.71389 1.06566,-0.71388 1.06566,-1.9037 0,-1.02427 -0.50696,-1.51054 -0.49662,-0.48627 -1.52089,-0.75527 -0.77597,-0.20693 -1.68643,-0.34143 -0.90012,-0.1345 -1.91405,-0.34142 -2.04854,-0.43454 -3.04178,-1.47951 -0.98289,-1.05531 -0.98289,-2.74174 0,-1.93473 1.6347,-3.16593 1.6347,-1.24154 4.14882,-1.24154 1.62436,0 2.97971,0.31038 1.35535,0.31039 2.40031,0.76562 v 2.42101 h -0.14484 q -0.87943,-0.74493 -2.31755,-1.2312 -1.42777,-0.49662 -2.92797,-0.49662 -1.64505,0 -2.64863,0.68285 -0.99323,0.68285 -0.99323,1.75886 0,0.96219 0.49662,1.51054 0.49661,0.54835 1.7485,0.83804 0.66216,0.14485 1.88301,0.35177 1.22085,0.20693 2.06924,0.4242 1.71746,0.45523 2.58654,1.37604 0.86908,0.92081 0.86908,2.5762 z"
           id="path1100"
           style="fill:#ffffff;fill-opacity:1" />
        <path
           d="m -115.45791,222.10121 h -1.93474 v -1.2312 q -0.25865,0.17589 -0.70354,0.49662 -0.43454,0.31039 -0.84838,0.49662 -0.48628,0.23796 -1.11739,0.39315 -0.63112,0.16554 -1.47951,0.16554 -1.56227,0 -2.64862,-1.03462 -1.08635,-1.03461 -1.08635,-2.63827 0,-1.31397 0.55869,-2.12097 0.56904,-0.81735 1.61401,-1.28293 1.05531,-0.46558 2.53481,-0.63112 1.47951,-0.16554 3.17628,-0.24831 v -0.30004 q 0,-0.66215 -0.23796,-1.09669 -0.22761,-0.43454 -0.66215,-0.68285 -0.41385,-0.23796 -0.99324,-0.32073 -0.57939,-0.0828 -1.2105,-0.0828 -0.76562,0 -1.70712,0.20692 -0.94151,0.19658 -1.94509,0.57939 h -0.10346 v -1.97613 q 0.56904,-0.15519 1.64504,-0.34142 1.07601,-0.18623 2.12097,-0.18623 1.22085,0 2.12097,0.20692 0.91047,0.19658 1.57262,0.68285 0.65181,0.47593 0.99324,1.2312 0.34142,0.75527 0.34142,1.87266 z m -1.93474,-2.8452 v -3.21767 q -0.88977,0.0517 -2.10027,0.1552 -1.20016,0.10346 -1.9037,0.30004 -0.83804,0.23796 -1.35535,0.74492 -0.51731,0.49662 -0.51731,1.37605 0,0.99323 0.60008,1.50019 0.60008,0.49662 1.83127,0.49662 1.02428,0 1.87266,-0.39316 0.84839,-0.4035 1.57262,-0.96219 z"
           id="path1102"
           style="fill:#ffffff;fill-opacity:1" />
        <path
           d="m -101.88369,210.54452 -4.67648,11.55669 h -1.95543 l -4.64544,-11.55669 h 2.11062 l 3.57978,9.19776 3.54875,-9.19776 z"
           id="path1104"
           style="fill:#ffffff;fill-opacity:1" />
        <path
           d="m -97.248603,208.60978 h -2.193392 v -2.01751 h 2.193392 z m -0.124154,13.49143 h -1.945084 v -11.55669 h 1.945084 z"
           id="path1106"
           style="fill:#ffffff;fill-opacity:1" />
        <path
           d="m -83.860631,222.10121 h -1.945084 v -6.58018 q 0,-0.79665 -0.09312,-1.48985 -0.09311,-0.70354 -0.341424,-1.09669 -0.258655,-0.43454 -0.744926,-0.64147 -0.486271,-0.21727 -1.262235,-0.21727 -0.796657,0 -1.665737,0.39316 -0.86908,0.39315 -1.665737,1.00358 v 8.62872 h -1.945083 v -11.55669 h 1.945083 v 1.28292 q 0.910465,-0.75527 1.883007,-1.17946 0.972542,-0.4242 1.996815,-0.4242 1.872661,0 2.855549,1.12774 0.982888,1.12773 0.982888,3.2487 z"
           id="path1108"
           style="fill:#ffffff;fill-opacity:1" />
        <path
           d="m -70.741664,220.78725 q 0,2.93831 -1.334658,4.31436 -1.334659,1.37604 -4.107438,1.37604 -0.920811,0 -1.800237,-0.1345 -0.86908,-0.12415 -1.717468,-0.36212 v -1.98647 h 0.103462 q 0.475925,0.18624 1.510544,0.45524 1.034619,0.27934 2.069238,0.27934 0.993234,0 1.645044,-0.23796 0.65181,-0.23796 1.013927,-0.66215 0.362117,-0.40351 0.51731,-0.97255 0.155193,-0.56904 0.155193,-1.27258 v -1.05531 q -0.879427,0.70354 -1.68643,1.05531 -0.796656,0.34143 -2.038199,0.34143 -2.069238,0 -3.290089,-1.48986 -1.210504,-1.50019 -1.210504,-4.22124 0,-1.48985 0.413847,-2.56586 0.424194,-1.08635 1.148428,-1.87266 0.672502,-0.73458 1.634698,-1.13808 0.962196,-0.41385 1.914045,-0.41385 1.003581,0 1.676083,0.20693 0.682849,0.19658 1.438121,0.61042 l 0.124154,-0.49661 h 1.820929 z m -1.945083,-1.86232 v -6.30083 q -0.775965,-0.35177 -1.448467,-0.49662 -0.662156,-0.15519 -1.324313,-0.15519 -1.603659,0 -2.52447,1.076 -0.920811,1.07601 -0.920811,3.12455 0,1.94509 0.682848,2.94867 0.682849,1.00358 2.265816,1.00358 0.848388,0 1.696776,-0.32073 0.858733,-0.33108 1.572621,-0.87943 z"
           id="path1110"
           style="fill:#ffffff;fill-opacity:1" />
        <path
           d="m -58.657316,218.76974 q 0,1.58297 -1.313966,2.59689 -1.30362,1.01393 -3.569436,1.01393 -1.282928,0 -2.358931,-0.30004 -1.065658,-0.31039 -1.789891,-0.6725 v -2.18305 h 0.103461 q 0.920811,0.6932 2.048546,1.10704 1.127735,0.4035 2.162354,0.4035 1.282928,0 2.007161,-0.41384 0.724234,-0.41385 0.724234,-1.30362 0,-0.68285 -0.393156,-1.03462 -0.393155,-0.35177 -1.510544,-0.60008 -0.413847,-0.0931 -1.08635,-0.21727 -0.662156,-0.12416 -1.210504,-0.269 -1.52089,-0.4035 -2.162354,-1.17947 -0.631117,-0.78631 -0.631117,-1.92439 0,-0.71389 0.289693,-1.345 0.300039,-0.63112 0.900118,-1.12774 0.579387,-0.48627 1.46916,-0.76562 0.900118,-0.28969 2.007161,-0.28969 1.034619,0 2.08993,0.25865 1.065658,0.24831 1.769199,0.61043 v 2.07958 h -0.103462 q -0.744926,-0.54834 -1.810583,-0.92081 -1.065658,-0.38281 -2.089931,-0.38281 -1.065658,0 -1.800237,0.41385 -0.73458,0.4035 -0.73458,1.21051 0,0.71388 0.444886,1.076 0.43454,0.36212 1.407082,0.58973 0.538002,0.12416 1.200159,0.24831 0.672502,0.12416 1.117388,0.22762 1.355351,0.31038 2.089931,1.06565 0.734579,0.76562 0.734579,2.02786 z"
           id="path1112"
           style="fill:#ffffff;fill-opacity:1" />
        <path
           d="m -36.371616,220.98382 q -0.569041,0.24831 -1.034619,0.46558 -0.455233,0.21727 -1.200158,0.45523 -0.631118,0.19658 -1.376044,0.33108 -0.734579,0.14485 -1.624352,0.14485 -1.676083,0 -3.052126,-0.46558 -1.365697,-0.47592 -2.379624,-1.47951 -0.993234,-0.98288 -1.551929,-2.49343 -0.558694,-1.52089 -0.558694,-3.52805 0,-1.9037 0.538002,-3.4039 0.538002,-1.50019 1.551929,-2.53481 0.982888,-1.00358 2.369277,-1.53124 1.396736,-0.52765 3.093511,-0.52765 1.241543,0 2.47274,0.30004 1.241543,0.30004 2.752087,1.05531 v 2.43135 h -0.155193 q -1.272582,-1.06566 -2.524471,-1.55193 -1.251889,-0.48627 -2.679663,-0.48627 -1.16912,0 -2.110623,0.38281 -0.931157,0.37246 -1.665737,1.16912 -0.713887,0.77597 -1.117388,1.96578 -0.393156,1.17946 -0.393156,2.73139 0,1.62435 0.43454,2.79347 0.444887,1.16912 1.138081,1.9037 0.724234,0.76562 1.686429,1.13808 0.972542,0.36212 2.048546,0.36212 1.479506,0 2.772779,-0.50696 1.293274,-0.50697 2.421009,-1.52089 h 0.144847 z"
           id="path1114"
           style="fill:#ffffff;fill-opacity:1" />
        <path
           d="m -23.780296,216.32804 q 0,2.82451 -1.448466,4.45921 -1.448467,1.63469 -3.879822,1.63469 -2.452047,0 -3.900514,-1.63469 -1.438121,-1.6347 -1.438121,-4.45921 0,-2.82451 1.438121,-4.45921 1.448467,-1.64505 3.900514,-1.64505 2.431355,0 3.879822,1.64505 1.448466,1.6347 1.448466,4.45921 z m -2.007161,0 q 0,-2.24513 -0.879426,-3.33148 -0.879426,-1.09669 -2.441701,-1.09669 -1.582967,0 -2.462393,1.09669 -0.86908,1.08635 -0.86908,3.33148 0,2.1727 0.879426,3.30043 0.879426,1.11739 2.452047,1.11739 1.551929,0 2.431355,-1.10704 0.889772,-1.11739 0.889772,-3.31078 z"
           id="path1116"
           style="fill:#ffffff;fill-opacity:1" />
        <path
           d="m -18.679648,208.60978 h -2.193393 v -2.01751 h 2.193393 z m -0.124155,13.49143 h -1.945084 v -11.55669 h 1.945084 z"
           id="path1118"
           style="fill:#ffffff;fill-opacity:1" />
        <path
           d="m -5.2916613,222.10121 h -1.9450839 v -6.58018 q 0,-0.79665 -0.093116,-1.48985 -0.093116,-0.70354 -0.3414243,-1.09669 -0.2586547,-0.43454 -0.7449257,-0.64147 -0.486271,-0.21727 -1.2622353,-0.21727 -0.7966565,0 -1.6657365,0.39316 -0.86908,0.39315 -1.665737,1.00358 v 8.62872 h -1.945084 v -11.55669 h 1.945084 v 1.28292 q 0.910465,-0.75527 1.883007,-1.17946 0.972542,-0.4242 1.9968146,-0.4242 1.8726606,0 2.8555487,1.12774 0.9828882,1.12773 0.9828882,3.2487 z"
           id="path1120"
           style="fill:#ffffff;fill-opacity:1" />
      </g>
    </g>
  </g>
</svg>
