<?xml version="1.0" encoding="UTF-8" standalone="no"?>
<!-- Created with Inkscape (http://www.inkscape.org/) -->

<svg
   width="255.99998"
   height="127.99999"
   viewBox="0 0 67.733328 33.866664"
   version="1.1"
   id="svg5"
   inkscape:version="1.2.2 (b0a8486, 2022-12-01)"
   sodipodi:docname="PULSAR189x109BlackFlat.svg"
   inkscape:export-filename="..\..\..\OneDrive\Desktop\WEB\PULSAR189x109BlueFlat.svg"
   inkscape:export-xdpi="96"
   inkscape:export-ydpi="96"
   xmlns:inkscape="http://www.inkscape.org/namespaces/inkscape"
   xmlns:sodipodi="http://sodipodi.sourceforge.net/DTD/sodipodi-0.dtd"
   xmlns="http://www.w3.org/2000/svg"
   xmlns:svg="http://www.w3.org/2000/svg">
  <sodipodi:namedview
     id="namedview7"
     pagecolor="#ffffff"
     bordercolor="#000000"
     borderopacity="0.25"
     inkscape:showpageshadow="false"
     inkscape:pageopacity="1"
     inkscape:pagecheckerboard="false"
     inkscape:deskcolor="#d1d1d1"
     inkscape:document-units="px"
     showgrid="false"
     showborder="false"
     inkscape:zoom="0.33635944"
     inkscape:cx="83.244282"
     inkscape:cy="465.27607"
     inkscape:window-width="1277"
     inkscape:window-height="701"
     inkscape:window-x="2"
     inkscape:window-y="23"
     inkscape:window-maximized="0"
     inkscape:current-layer="layer1">
    <inkscape:grid
       type="xygrid"
       id="grid182"
       originx="0"
       originy="0"
       spacingy="1"
       spacingx="1"
       units="px"
       visible="false" />
  </sodipodi:namedview>
  <defs
     id="defs2" />
  <g
     inkscape:label="Layer 1"
     inkscape:groupmode="layer"
     id="layer1">
    <g
       id="g12604"
       style="fill:#0098ce;fill-opacity:1;stroke:#000000;stroke-width:0;stroke-dasharray:none;stroke-opacity:1"
       transform="matrix(0.25988866,0,0,0.25988866,-318.56991,211.08544)">
      <g
         id="g12602"
         transform="matrix(0.66624247,0,0,0.6656971,664.60931,-233.78756)"
         style="fill:#0098ce;fill-opacity:1;stroke:#000000;stroke-width:0;stroke-dasharray:none;stroke-opacity:1">
        <path
           id="path12600"
           style="fill:#0098ce;fill-opacity:1;fill-rule:evenodd;stroke:#000000;stroke-width:0;stroke-dasharray:none;stroke-opacity:1"
           d="m 1113.5595,-797.16612 c -5.3983,0 -8.8956,1.82588 -10.7963,6.61973 l -18.0192,45.65617 h 9.8836 l 16.2712,-41.31836 c 0.5322,-1.21749 1.3683,-1.75013 2.5849,-1.75013 1.2165,0 2.0528,0.53264 2.509,1.75013 l 15.5859,41.31836 h 9.9601 l -17.3347,-45.65617 c -1.8247,-4.79385 -5.3225,-6.61973 -10.6445,-6.61973 z m -227.50703,0.90642 a 4.6213499,4.4896697 0 0 0 -4.6212,4.48952 4.6213499,4.4896697 0 0 0 4.6212,4.48954 4.6213499,4.4896697 0 0 0 4.62197,-4.48954 4.6213499,4.4896697 0 0 0 -4.62197,-4.48952 z m 17.00447,0 a 8.6645422,8.9009618 0 0 0 -8.66467,8.90087 8.6645422,8.9009618 0 0 0 0.005,0.0782 h 8.66 4.62045 0.38825 c 4.86993,0 7.07525,3.11946 7.07525,6.84808 0,3.57647 -2.05423,7.07797 -7.1526,7.07797 h -18.49176 c -5.63084,0 -8.06525,2.35832 -8.06525,8.14152 v 4.75734 0.58055 5.99584 8.98912 h 8.98716 v -4.49883 -4.49029 -6.57639 c 0,-0.0884 -2.1e-4,-0.17538 -0.0155,-0.26239 v -2.74482 c 0,-0.91313 0.4569,-1.29344 1.29393,-1.29344 h 15.98048 c 12.02299,0 16.51257,-8.37041 16.51257,-16.13211 0,-8.21821 -4.94613,-15.37121 -16.51257,-15.37121 z m 29.70175,0.006 v 35.00284 c 0,10.80517 5.62684,16.36045 16.57522,16.36045 h 10.79621 c 10.94839,0 16.65025,-5.55528 16.65025,-16.36045 v -35.00284 h -8.81934 v 34.31857 c 0,5.09821 -2.66128,8.06566 -8.43961,8.06566 h -9.12328 c -5.93037,0 -8.51537,-2.96745 -8.51537,-8.06566 v -34.31857 z m 55.50235,0 v 33.63353 c 0,10.27251 5.3224,17.72976 18.93186,17.72976 h 20.4524 v -8.97906 h -19.9203 c -8.05919,0 -10.49225,-3.88053 -10.49225,-8.82656 v -33.55767 z m 61.43296,0 c -11.4046,0 -15.9665,6.23964 -15.9665,14.76203 0,7.15272 3.1929,14.83867 16.8784,14.83867 h 11.937 c 6.3105,0 8.0591,3.0433 8.0591,6.39138 0,3.72854 -2.2048,6.39215 -7.0707,6.39215 h -28.8911 v 8.97906 h 28.5872 c 11.7087,0 16.3462,-6.39244 16.3462,-15.06701 0,-7.38099 -3.2692,-15.14209 -17.2588,-15.14209 h -12.0129 c -6.0064,0 -7.6028,-2.96738 -7.6028,-6.08719 0,-3.57634 2.0531,-6.08793 6.6909,-6.08793 h 26.3065 v -8.97907 z m 99.2959,0 v 8.97907 h 28.1309 c 4.942,0 7.1471,3.11976 7.1471,6.7722 0,3.65246 -2.053,7.15306 -7.1471,7.15306 h -19.9961 c -5.6262,0 -8.059,2.35847 -8.059,8.14153 v 20.31743 h 8.9717 v -18.56729 c 0,-0.91311 0.456,-1.29346 1.2923,-1.29346 h 13.3819 l 11.7087,19.86075 h 9.9594 l -11.9362,-20.54501 c 7.8312,-2.20668 10.8721,-9.05526 10.8721,-15.44706 0,-8.21803 -4.9421,-15.37122 -16.4988,-15.37122 z" />
      </g>
    </g>
  </g>
</svg>
